<?xml version="1.0" encoding="UTF-8"?><!DOCTYPE svg PUBLIC "-//W3C//DTD SVG 1.1//EN" "http://www.w3.org/Graphics/SVG/1.1/DTD/svg11.dtd"><svg xmlns="http://www.w3.org/2000/svg" xmlns:xlink="http://www.w3.org/1999/xlink"><defs>
        <style>
            .cls-1{fill:#948968}
        </style>
    
        <path d="M857.585 565.694L543.027 747.15l-314.59 181.455c-41.364 23.856-93.044-5.965-93.044-53.678V149.074c0-47.713 51.68-77.534 93.043-53.678l314.59 181.455 314.559 181.455c41.363 23.89 41.363 83.531 0 107.388" id="b"/>
        <filter x="-50%" y="-50%" width="200%" height="200%" filterUnits="objectBoundingBox" id="a">
            <feOffset dy="21" in="SourceAlpha" result="shadowOffsetOuter1"/>
            <feGaussianBlur stdDeviation="22" in="shadowOffsetOuter1" result="shadowBlurOuter1"/>
            <feColorMatrix values="0 0 0 0 0 0 0 0 0 0 0 0 0 0 0 0 0 0 0.5 0" in="shadowBlurOuter1"/>
        </filter>
    
        <style>
            .cls-1,.cls-3{fill:none;stroke:#201600;stroke-miterlimit:10}.cls-2{fill:#201600}.cls-3{stroke-width:.75px}
        </style>
    
        <style>
            .cls-1{fill:#fff}.cls-1,.cls-2,.cls-3{stroke:#201600;stroke-miterlimit:10}.cls-1,.cls-2{stroke-linecap:round}.cls-2,.cls-3{fill:none}
        </style>
    
        <style>
            .cls-1{fill:#201600}.cls-2{fill:none;stroke:#201600;stroke-miterlimit:10}
        </style>
    
        <style>
            .cls-1{fill:#464340}.cls-2{fill:#535353}
        </style>
    
        <style>
            .cls-1,.cls-2,.cls-4{fill:none;stroke-miterlimit:10}.cls-1{stroke:#201600}.cls-1,.cls-2{stroke-width:1.25px}.cls-2,.cls-4{stroke:#000105}.cls-3{fill:#000105}.cls-4{stroke-width:.75px}
        </style>
    
        <style>
            .cls-1{fill:none;stroke:#201600;stroke-miterlimit:10}.cls-2{fill:#201600}
        </style>
    
        <style>
            .cls-1,.cls-2{fill:none;stroke:#201600;stroke-miterlimit:10}.cls-1{stroke-linecap:round}
        </style>
    
        <style>
            .cls-1,.cls-4{fill:#201600}.cls-2{fill:none}.cls-2,.cls-3,.cls-4{stroke:#201600;stroke-miterlimit:10}.cls-3{fill:#948968}.cls-4{stroke-width:.75px}
        </style>
    
        <style>
            .cls-1{fill:#535353}
        </style>
    </defs><symbol id="svg-ico_bird_icn" viewBox="0 0 42.05 22.64">
    
    <title>
        bird_icn
    </title>
    <g id="&#x421;&#x43B;&#x43E;&#x439;_2" data-name="&#x421;&#x43B;&#x43E;&#x439; 2">
        <path class="cls-1" d="M40.57 7.06c-3.38 2-7.21 3.07-10.7 5 4 .59 8.11 0 12.12.47l.06.54a9.42 9.42 0 0 1-1.6.54c-4 .65-8 1.26-12 1.88-2.6.41-5.21.75-7.79 1.27a2.74 2.74 0 0 0-1.44 1.34c-3.36 5.9-12.53 6.14-16.08.36a11.56 11.56 0 0 1-1-2.61c-.31-1-.49-2-1.6-2.5-.24-.11-.38-.46-.56-.69l.78-.44a9.72 9.72 0 0 0 2.11-1.15 4.21 4.21 0 0 1 3.6-1.23c.84.12 1.19-.24 1.71-.84 2.46-2.84 5-5.61 7.57-8.36a1.67 1.67 0 0 1 2.33-.3 1.68 1.68 0 0 1 .66 2.22 2.48 2.48 0 0 0 0 1 6.14 6.14 0 0 0 1.14-.16c.3-.11.55-.5.83-.51.74 0 1.67-.21 2.16.17s.34 1.3.41 2a10.11 10.11 0 0 1 0 1.74c0 .62-.17 1.24-.22 1.86 0 .43-.13 1 .09 1.25a1.46 1.46 0 0 0 1.22.33C29.29 9.08 34.16 7.86 39 6.66a8.58 8.58 0 0 1 1.35-.11zm-7.71 6.62v-.38c-2 0-4 .11-6 0-3.55-.26-6.78.17-9.5 2.81a3.77 3.77 0 0 1-3.84.65c-2.33-.69-3-3-4.54-4.45s-2.86-2-4.13-1.12a11.26 11.26 0 0 1 1.3 1.72c.07.14-.45.84-.79.92-1.36.29-1.47-.83-1.67-1.7a1.64 1.64 0 0 0-.95 2.17c1 4.12 2.19 6.27 7.09 7.31 3.14.66 7.35-1.31 8.55-4.17a2.63 2.63 0 0 1 2.3-1.75c1.72-.26 3.45-.47 5.16-.75 2.35-.4 4.68-.84 7.02-1.26zm-12-6.88l-.19-.35a11.24 11.24 0 0 0 1.44-1.4 3.08 3.08 0 0 0 .25-1.22c-.39 0-.86-.17-1.16 0a20.94 20.94 0 0 0-2.08 1.45c-2.11 1.5-4.23 3-6.3 4.52a3.48 3.48 0 0 0-.91 4.56 3.33 3.33 0 0 0 4.32 1.22c2-1.21 3.88-2.64 5.78-4a1 1 0 0 0 .34-.83c-.07-.24-.45-.43-.73-.55a7.64 7.64 0 0 0-1.12-.3c.28-.35.54-.7.84-1 .16-.17.42-.26.54-.45a2.13 2.13 0 0 0 .46-1c0-.18-.55-.37-.87-.49a2.39 2.39 0 0 0-.66-.16zM18.2 4.26l-1.74.27-.25-.26a8.75 8.75 0 0 0 1.06-1.46 6.38 6.38 0 0 0 .31-1.54c-.51.17-1.17.19-1.5.53-2.25 2.34-4.45 4.72-6.63 7.13-1.13 1.24-.82 2.23.85 2.93 1.19-3.86 5.4-4.6 7.9-7.6zm5 7.34l.07.53c2.93.89 5.16-1 7.65-1.86l-.13-.52z" id="Layer_1" data-name="Layer 1"/>
    </g>
</symbol><symbol id="svg-ico_calendar" viewBox="0 0 50 50">
    <path d="M12 0c-1.094 0-2 .906-2 2v2H4c-.523 0-1.055.191-1.43.57C2.191 4.945 2 5.477 2 6v40c0 .523.191 1.055.57 1.434.375.375.907.566 1.43.566h42c.523 0 1.055-.191 1.434-.566.375-.38.566-.91.566-1.434V6c0-.523-.191-1.055-.566-1.43-.38-.379-.91-.57-1.434-.57h-6V2c0-1.094-.906-2-2-2h-2c-1.094 0-2 .906-2 2v2H16V2c0-1.094-.906-2-2-2zm0 2h2v6h-2zm24 0h2v6h-2zM4 6h6v2c0 1.094.906 2 2 2h2c1.094 0 2-.906 2-2V6h18v2c0 1.094.906 2 2 2h2c1.094 0 2-.906 2-2V6h6v7H4zm0 9h42v31H4zm6 4v23h30V19zm2 2h5v5h-5zm7 0h5v5h-5zm7 0h5v5h-5zm7 0h5v5h-5zm-21 7h5v5h-5zm7 0h5v5h-5zm7 0h5v5h-5zm7 0h5v5h-5zm-21 7h5v5h-5zm7 0h5v5h-5zm7 0h5v5h-5zm7 0h5v5h-5z"/>
</symbol><symbol id="svg-ico_christmas-star" viewBox="0 0 26 26">
    <path d="M25.969 9.48a.653.653 0 0 0-.551-.449l-8.39-.894L13.593.355c-.211-.472-.98-.472-1.188 0L8.973 8.137.582 9.03a.648.648 0 0 0-.55.45.665.665 0 0 0 .183.69l6.265 5.704-1.75 8.332a.666.666 0 0 0 .254.668.65.65 0 0 0 .383.125c.11 0 .223-.027.324-.09L13 20.656l7.309 4.254c.222.13.5.117.707-.035a.666.666 0 0 0 .254-.668l-1.75-8.336 6.265-5.703a.656.656 0 0 0 .184-.688z"/>
</symbol><symbol id="svg-ico_clock" viewBox="0 0 612 612">
    <path d="M306 0C136.992 0 0 136.992 0 306s136.992 306 306 306 306-137.012 306-306S475.008 0 306 0zm0 573.157C158.451 573.157 38.843 453.55 38.843 306 38.843 158.451 158.451 38.843 306 38.843c147.55 0 267.157 119.608 267.157 267.157 0 147.55-119.607 267.157-267.157 267.157zm19.125-457.202h-37.657l.593 209.782 132.077 112.952 23.313-32.876-118.326-99.221V115.955z"/>
</symbol><symbol id="svg-ico_envelope" viewBox="0 0 483.3 483.3">
    <path d="M424.3 57.75H59.1c-32.6 0-59.1 26.5-59.1 59.1v249.6c0 32.6 26.5 59.1 59.1 59.1h365.1c32.6 0 59.1-26.5 59.1-59.1v-249.5c.1-32.6-26.4-59.2-59-59.2zm32.1 308.7c0 17.7-14.4 32.1-32.1 32.1H59.1c-17.7 0-32.1-14.4-32.1-32.1v-249.5c0-17.7 14.4-32.1 32.1-32.1h365.1c17.7 0 32.1 14.4 32.1 32.1v249.5h.1z"/>
    <path d="M304.8 238.55l118.2-106c5.5-5 6-13.5 1-19.1-5-5.5-13.5-6-19.1-1l-163 146.3-31.8-28.4c-.1-.1-.2-.2-.2-.3-.7-.7-1.4-1.3-2.2-1.9L78.3 112.35c-5.6-5-14.1-4.5-19.1 1.1-5 5.6-4.5 14.1 1.1 19.1l119.6 106.9-119.1 111.5c-5.4 5.1-5.7 13.6-.6 19.1 2.7 2.8 6.3 4.3 9.9 4.3 3.3 0 6.6-1.2 9.2-3.6l120.9-113.1 32.8 29.3c2.6 2.3 5.8 3.4 9 3.4s6.5-1.2 9-3.5l33.7-30.2 120.2 114.2c2.6 2.5 6 3.7 9.3 3.7 3.6 0 7.1-1.4 9.8-4.2 5.1-5.4 4.9-14-.5-19.1l-118.7-112.7z"/>
</symbol><symbol id="svg-ico_facebook-f" viewBox="0 0 24 24">
    <path d="M17.525 9H14V7c0-1.032.084-1.682 1.563-1.682h1.868v-3.18A26.065 26.065 0 0 0 14.693 2C11.98 2 10 3.657 10 6.699V9H7v4l3-.001V22h4v-9.003l3.066-.001L17.525 9z"/>
</symbol><symbol id="svg-ico_google-plus" viewBox="0 0 512 512">
    <path d="M448 224v-64h-32v64h-64v32h64v64h32v-64h64v-32z"/>
    <path d="M160 224v64h90.528c-13.216 37.248-48.8 64-90.528 64-52.928 0-96-43.072-96-96s43.072-96 96-96c22.944 0 45.024 8.224 62.176 23.168l42.048-48.256C235.424 109.824 198.432 96 160 96 71.776 96 0 167.776 0 256s71.776 160 160 160 160-71.776 160-160v-32H160z"/>
</symbol><symbol id="svg-ico_icon-play" viewBox="0 0 1024 1024">
    <title>
        Artboard 1 Copy 27
    </title>
    
    <g fill-rule="evenodd">
        <use filter="url(#a)" xlink:href="#b"/>
        <use xlink:href="#b"/>
    </g>
</symbol><symbol id="svg-ico_instagram-filled" viewBox="0 0 50 50">
    <path d="M16 3C8.83 3 3 8.83 3 16v18c0 7.17 5.83 13 13 13h18c7.17 0 13-5.83 13-13V16c0-7.17-5.83-13-13-13H16zm21 8c1.1 0 2 .9 2 2s-.9 2-2 2-2-.9-2-2 .9-2 2-2zm-12 3c6.07 0 11 4.93 11 11s-4.93 11-11 11-11-4.93-11-11 4.93-11 11-11zm0 2c-4.96 0-9 4.04-9 9s4.04 9 9 9 9-4.04 9-9-4.04-9-9-9z"/>
</symbol><symbol id="svg-ico_instagram-logo" viewBox="0 0 169.063 169.063">
    <path d="M122.406 0H46.654C20.929 0 0 20.93 0 46.655v75.752c0 25.726 20.929 46.655 46.654 46.655h75.752c25.727 0 46.656-20.93 46.656-46.655V46.655C169.063 20.93 148.133 0 122.406 0zm31.657 122.407c0 17.455-14.201 31.655-31.656 31.655H46.654C29.2 154.063 15 139.862 15 122.407V46.655C15 29.201 29.2 15 46.654 15h75.752c17.455 0 31.656 14.201 31.656 31.655v75.752z"/>
    <path d="M84.531 40.97c-24.021 0-43.563 19.542-43.563 43.563 0 24.02 19.542 43.561 43.563 43.561s43.563-19.541 43.563-43.561c0-24.021-19.542-43.563-43.563-43.563zm0 72.123c-15.749 0-28.563-12.812-28.563-28.561 0-15.75 12.813-28.563 28.563-28.563s28.563 12.813 28.563 28.563c0 15.749-12.814 28.561-28.563 28.561z"/>
    <path d="M129.921 28.251c-2.89 0-5.729 1.17-7.77 3.22a11.053 11.053 0 0 0-3.23 7.78c0 2.891 1.18 5.73 3.23 7.78 2.04 2.04 4.88 3.22 7.77 3.22 2.9 0 5.73-1.18 7.78-3.22 2.05-2.05 3.22-4.89 3.22-7.78 0-2.9-1.17-5.74-3.22-7.78-2.04-2.05-4.88-3.22-7.78-3.22z"/>
</symbol><symbol id="svg-ico_maps-and-flags" viewBox="0 0 512 512">
    <path d="M256 0C153.755 0 70.573 83.182 70.573 185.426c0 126.888 165.939 313.167 173.004 321.035 6.636 7.391 18.222 7.378 24.846 0 7.065-7.868 173.004-194.147 173.004-321.035C441.425 83.182 358.244 0 256 0zm0 278.719c-51.442 0-93.292-41.851-93.292-93.293S204.559 92.134 256 92.134s93.291 41.851 93.291 93.293-41.85 93.292-93.291 93.292z"/>
</symbol><symbol id="svg-ico_marker" viewBox="0 0 50 50">
    <path d="M25 1C16.16 1 9 8.16 9 17c0 7.309 3.86 15.164 7.656 21.25 3.797 6.086 7.594 10.406 7.594 10.406.191.215.465.34.75.34s.559-.125.75-.34c0 0 3.8-4.41 7.594-10.531C37.137 32.004 41 24.168 41 17c0-8.84-7.16-16-16-16zm0 2c7.762 0 14 6.238 14 14 0 6.434-3.637 14.082-7.344 20.063-3.105 5.011-5.734 8.238-6.656 9.343-.93-1.097-3.559-4.254-6.656-9.218C14.64 31.25 11 23.59 11 17c0-7.762 6.238-14 14-14zm0 8c-3.855 0-7 3.145-7 7s3.145 7 7 7 7-3.145 7-7-3.145-7-7-7zm0 2c2.773 0 5 2.227 5 5s-2.227 5-5 5-5-2.227-5-5 2.227-5 5-5z"/>
</symbol><symbol id="svg-ico_menu-button" viewBox="0 0 459 459">
    <path d="M0 382.5h459v-51H0v51zM0 255h459v-51H0v51zM0 76.5v51h459v-51H0z"/>
</symbol><symbol id="svg-ico_phone-call" viewBox="0 0 473.806 473.806">
    <path d="M374.456 293.506c-9.7-10.1-21.4-15.5-33.8-15.5-12.3 0-24.1 5.3-34.2 15.4l-31.6 31.5c-2.6-1.4-5.2-2.7-7.7-4-3.6-1.8-7-3.5-9.9-5.3-29.6-18.8-56.5-43.3-82.3-75-12.5-15.8-20.9-29.1-27-42.6 8.2-7.5 15.8-15.3 23.2-22.8 2.8-2.8 5.6-5.7 8.4-8.5 21-21 21-48.2 0-69.2l-27.3-27.3c-3.1-3.1-6.3-6.3-9.3-9.5-6-6.2-12.3-12.6-18.8-18.6-9.7-9.6-21.3-14.7-33.5-14.7s-24 5.1-34 14.7l-.2.2-34 34.3c-12.8 12.8-20.1 28.4-21.7 46.5-2.4 29.2 6.2 56.4 12.8 74.2 16.2 43.7 40.4 84.2 76.5 127.6 43.8 52.3 96.5 93.6 156.7 122.7 23 10.9 53.7 23.8 88 26 2.1.1 4.3.2 6.3.2 23.1 0 42.5-8.3 57.7-24.8.1-.2.3-.3.4-.5 5.2-6.3 11.2-12 17.5-18.1 4.3-4.1 8.7-8.4 13-12.9 9.9-10.3 15.1-22.3 15.1-34.6 0-12.4-5.3-24.3-15.4-34.3l-54.9-55.1zm35.8 105.3c-.1 0-.1.1 0 0-3.9 4.2-7.9 8-12.2 12.2-6.5 6.2-13.1 12.7-19.3 20-10.1 10.8-22 15.9-37.6 15.9-1.5 0-3.1 0-4.6-.1-29.7-1.9-57.3-13.5-78-23.4-56.6-27.4-106.3-66.3-147.6-115.6-34.1-41.1-56.9-79.1-72-119.9-9.3-24.9-12.7-44.3-11.2-62.6 1-11.7 5.5-21.4 13.8-29.7l34.1-34.1c4.9-4.6 10.1-7.1 15.2-7.1 6.3 0 11.4 3.8 14.6 7l.3.3c6.1 5.7 11.9 11.6 18 17.9 3.1 3.2 6.3 6.4 9.5 9.7l27.3 27.3c10.6 10.6 10.6 20.4 0 31-2.9 2.9-5.7 5.8-8.6 8.6-8.4 8.6-16.4 16.6-25.1 24.4-.2.2-.4.3-.5.5-8.6 8.6-7 17-5.2 22.7l.3.9c7.1 17.2 17.1 33.4 32.3 52.7l.1.1c27.6 34 56.7 60.5 88.8 80.8 4.1 2.6 8.3 4.7 12.3 6.7 3.6 1.8 7 3.5 9.9 5.3.4.2.8.5 1.2.7 3.4 1.7 6.6 2.5 9.9 2.5 8.3 0 13.5-5.2 15.2-6.9l34.2-34.2c3.4-3.4 8.8-7.5 15.1-7.5 6.2 0 11.3 3.9 14.4 7.3l.2.2 55.1 55.1c10.3 10.2 10.3 20.7.1 31.3z"/>
    <path d="M256.056 112.706c26.2 4.4 50 16.8 69 35.8s31.3 42.8 35.8 69c1.1 6.6 6.8 11.2 13.3 11.2.8 0 1.5-.1 2.3-.2 7.4-1.2 12.3-8.2 11.1-15.6-5.4-31.7-20.4-60.6-43.3-83.5s-51.8-37.9-83.5-43.3c-7.4-1.2-14.3 3.7-15.6 11s3.5 14.4 10.9 15.6z"/>
    <path d="M473.256 209.006c-8.9-52.2-33.5-99.7-71.3-137.5s-85.3-62.4-137.5-71.3c-7.3-1.3-14.2 3.7-15.5 11-1.2 7.4 3.7 14.3 11.1 15.6 46.6 7.9 89.1 30 122.9 63.7 33.8 33.8 55.8 76.3 63.7 122.9 1.1 6.6 6.8 11.2 13.3 11.2.8 0 1.5-.1 2.3-.2 7.3-1.1 12.3-8.1 11-15.4z"/>
</symbol><symbol id="svg-ico_phone-filled" viewBox="0 0 50 50">
    <path d="M39.031 47h-.047c-7.515-.246-16.32-7.531-22.386-13.602-6.075-6.07-13.36-14.878-13.594-22.359-.086-2.625 6.355-7.293 6.422-7.34 1.672-1.164 3.527-.75 4.289.305.515.715 5.398 8.113 5.93 8.953.55.871.468 2.168-.22 3.469-.378.722-1.636 2.933-2.226 3.965.637.906 2.32 3.129 5.797 6.605 3.48 3.477 5.7 5.164 6.61 5.8 1.03-.589 3.242-1.847 3.964-2.226 1.282-.68 2.57-.765 3.45-.226.898.55 8.277 5.457 8.957 5.93.57.402.937 1.09 1.011 1.89.07.809-.18 1.664-.699 2.41-.043.063-4.656 6.426-7.258 6.426z"/>
</symbol><symbol id="svg-ico_phone" viewBox="0 0 50 50">
    <path d="M11.84 2.988c-.77-.062-1.625.16-2.414.715-.696.485-2.196 1.676-3.598 3.024-.7.671-1.367 1.37-1.883 2.058-.52.688-.972 1.317-.945 2.23.027.82.11 3.247 1.855 6.965 1.747 3.715 5.133 8.813 11.739 15.422 6.61 6.61 11.707 9.996 15.422 11.743C35.73 46.89 38.16 46.973 38.98 47c.91.027 1.54-.426 2.227-.945.688-.52 1.387-1.184 2.059-1.883 1.343-1.402 2.535-2.902 3.02-3.598 1.105-1.574.921-3.433-.31-4.297-.773-.543-7.886-5.277-8.956-5.933-1.086-.664-2.336-.364-3.454.226-.879.465-3.257 1.828-3.937 2.22-.512-.325-2.453-1.618-6.629-5.794-4.18-4.176-5.469-6.117-5.793-6.629.39-.68 1.75-3.047 2.219-3.941.586-1.113.914-2.375.215-3.469a516.58 516.58 0 0 0-2.97-4.527c-1.347-2.035-2.624-3.965-2.956-4.426V4c-.434-.598-1.11-.95-1.875-1.012zm-.184 2.043c.274.035.438.145.438.145.16.222 1.562 2.324 2.906 4.355a574.596 574.596 0 0 1 2.953 4.5c.04.059.094.723-.297 1.461v.004c-.441.84-2.5 4.438-2.5 4.438l-.285.503.293.5s1.535 2.59 6.418 7.473c4.887 4.883 7.477 6.422 7.477 6.422l.5.293.503-.285s3.59-2.055 4.438-2.5c.738-.387 1.402-.336 1.48-.29.692.427 8.375 5.532 8.848 5.864.016.012.434.645-.176 1.512h-.004c-.367.527-1.57 2.054-2.824 3.36-.629.651-1.273 1.26-1.82 1.671-.547.41-1.035.54-.957.543-.852-.027-2.73-.047-6.18-1.668-3.449-1.617-8.37-4.855-14.86-11.348C11.524 25.5 8.286 20.578 6.665 17.125 5.047 13.675 5.027 11.797 5 10.949c.004.078.133-.414.543-.96.41-.548 1.016-1.196 1.668-1.825C8.52 6.91 10.043 5.707 10.57 5.34v.004c.433-.305.812-.344 1.085-.313z"/>
</symbol><symbol id="svg-ico_pinterest" viewBox="0 0 310.05 310.05">
    <path d="M245.265 31.772C223.923 11.284 194.388 0 162.101 0c-49.32 0-79.654 20.217-96.416 37.176-20.658 20.9-32.504 48.651-32.504 76.139 0 34.513 14.436 61.003 38.611 70.858 1.623.665 3.256 1 4.857 1 5.1 0 9.141-3.337 10.541-8.69.816-3.071 2.707-10.647 3.529-13.936 1.76-6.495.338-9.619-3.5-14.142-6.992-8.273-10.248-18.056-10.248-30.788 0-37.818 28.16-78.011 80.352-78.011 41.412 0 67.137 23.537 67.137 61.425 0 23.909-5.15 46.051-14.504 62.35-6.5 11.325-17.93 24.825-35.477 24.825-7.588 0-14.404-3.117-18.705-8.551-4.063-5.137-5.402-11.773-3.768-18.689 1.846-7.814 4.363-15.965 6.799-23.845 4.443-14.392 8.643-27.985 8.643-38.83 0-18.55-11.404-31.014-28.375-31.014-21.568 0-38.465 21.906-38.465 49.871 0 13.715 3.645 23.973 5.295 27.912-2.717 11.512-18.865 79.953-21.928 92.859-1.771 7.534-12.44 67.039 5.219 71.784 19.841 5.331 37.576-52.623 39.381-59.172 1.463-5.326 6.582-25.465 9.719-37.845 9.578 9.226 25 15.463 40.006 15.463 28.289 0 53.73-12.73 71.637-35.843 17.367-22.418 26.932-53.664 26.932-87.978 0-26.826-11.52-53.272-31.604-72.556z"/>
</symbol><symbol id="svg-ico_placeholder" viewBox="0 0 477 477">
    <path d="M238.4 0C133 0 47.2 85.8 47.2 191.2c0 12 1.1 24.1 3.4 35.9.1.7.5 2.8 1.3 6.4 2.9 12.9 7.2 25.6 12.8 37.7 20.6 48.5 65.9 123 165.3 202.8 2.5 2 5.5 3 8.5 3s6-1 8.5-3c99.3-79.8 144.7-154.3 165.3-202.8 5.6-12.1 9.9-24.7 12.8-37.7.8-3.6 1.2-5.7 1.3-6.4 2.2-11.8 3.4-23.9 3.4-35.9C429.6 85.8 343.8 0 238.4 0zm161.2 222.4c0 .2-.1.4-.1.6-.1.5-.4 2-.9 4.3v.2c-2.5 11.2-6.2 22.1-11.1 32.6-.1.1-.1.3-.2.4-18.7 44.3-59.7 111.9-148.9 185.6-89.2-73.7-130.2-141.3-148.9-185.6-.1-.1-.1-.3-.2-.4-4.8-10.4-8.5-21.4-11.1-32.6v-.2c-.6-2.3-.8-3.8-.9-4.3 0-.2-.1-.4-.1-.7-2-10.3-3-20.7-3-31.2 0-90.5 73.7-164.2 164.2-164.2s164.2 73.7 164.2 164.2c0 10.6-1 21.1-3 31.3z"/>
    <path d="M238.4 71.9c-66.9 0-121.4 54.5-121.4 121.4s54.5 121.4 121.4 121.4 121.4-54.5 121.4-121.4S305.3 71.9 238.4 71.9zm0 215.8c-52.1 0-94.4-42.4-94.4-94.4s42.4-94.4 94.4-94.4 94.4 42.4 94.4 94.4-42.3 94.4-94.4 94.4z"/>
</symbol><symbol id="svg-ico_price-tag" viewBox="0 0 50 50">
    <path d="M28.625 2c-.34.004-.684.02-1.031.063-.692.09-1.45.324-2.032.906L2.845 25.687a2.912 2.912 0 0 0 0 4.094l17.375 17.375a2.912 2.912 0 0 0 4.093 0l22.72-22.718c.577-.579.816-1.344.906-2.032.09-.687.062-1.367.062-2.031V5.5C48 3.578 46.422 2 44.5 2H29.625c-.324 0-.66-.004-1 0zm.031 2c.293-.008.63 0 .969 0H44.5c.84 0 1.5.66 1.5 1.5v14.875c0 .695-.004 1.324-.063 1.781-.058.457-.152.684-.312.844L22.906 45.75a.903.903 0 0 1-1.281 0l-.125-.156L4.25 28.375a.903.903 0 0 1 0-1.281L27 4.375c.156-.156.414-.254.875-.313.23-.03.488-.054.781-.062zM39 7c-2.2 0-4 1.8-4 4s1.8 4 4 4 4-1.8 4-4-1.8-4-4-4zm0 2c1.117 0 2 .883 2 2s-.883 2-2 2-2-.883-2-2 .883-2 2-2z"/>
</symbol><symbol id="svg-ico_romance" viewBox="0 0 50 50">
    <path d="M11.906 6C5.34 6 0 11.34 0 17.906 0 31.395 15.215 38.48 20.375 42.781l.625.532.625-.532c1.004-.836 2.45-1.847 4.031-2.937 1.371 1.77 2.653 3.289 3.375 4.437l.438.719.781-.313c4.305-1.718 16.273-2.886 19.313-12.218 1.492-4.59-1.036-9.54-5.626-11.032-.746-.242-1.503-.343-2.25-.375.192-1.011.313-2.066.313-3.156C42 11.34 36.66 6 30.094 6 26.41 6 23.18 7.809 21 10.438 18.82 7.808 15.59 6 11.906 6zm0 2c3.434 0 6.469 1.879 8.25 4.563l.844 1.25.844-1.25C23.625 9.878 26.66 8 30.094 8A9.89 9.89 0 0 1 40 17.906c0 1.145-.145 2.235-.375 3.282-.969.199-1.895.57-2.75 1.062-.973-2.195-2.762-4.012-5.219-4.813a8.78 8.78 0 0 0-3.468-.406 8.757 8.757 0 0 0-7.563 6.032c-1.89 5.804.895 11.085 3.844 15.187-1.297.902-2.453 1.73-3.469 2.531-6.016-4.754-19-11.246-19-22.875A9.89 9.89 0 0 1 11.906 8zm17.125 11c.66.008 1.332.125 2 .344a6.78 6.78 0 0 1 4.438 4.625l.375 1.437 1.187-.937a6.776 6.776 0 0 1 6.313-1.125c3.562 1.16 5.468 4.937 4.312 8.5-2.472 7.59-12.148 8.828-17.406 10.718-3.14-4.624-10.219-11.324-7.75-18.906.867-2.672 3.25-4.402 5.875-4.625a6.15 6.15 0 0 1 .656-.031z"/>
</symbol><symbol id="svg-ico_search" viewBox="0 0 24 24">
    <path d="M9 2C5.146 2 2 5.146 2 9s3.146 7 7 7a6.959 6.959 0 0 0 4.574-1.719l.426.426V16l5.586 5.586a1.415 1.415 0 0 0 2-2L16 14h-1.293l-.426-.426A6.959 6.959 0 0 0 16 9c0-3.854-3.146-7-7-7zm0 2c2.773 0 5 2.227 5 5s-2.227 5-5 5-5-2.227-5-5 2.227-5 5-5z"/>
</symbol><symbol id="svg-ico_speech-bubble-filled" viewBox="0 0 50 50">
    <path d="M25 4C12.316 4 2 12.973 2 24c0 6.188 3.336 12.066 8.95 15.84-.134 1.05-.665 3.601-2.766 6.586l-1.106 1.566L9.055 48c5.43 0 9.101-3.328 10.308-4.605C21.195 43.797 23.09 44 25 44c12.684 0 23-8.973 23-20S37.684 4 25 4z"/>
</symbol><symbol id="svg-ico_speech-bubble" viewBox="0 0 50 50">
    <path d="M25 4.063C12.414 4.063 2.062 12.925 2.062 24c0 6.426 3.563 12.094 8.938 15.719-.008.215 0 .547-.281 1.593-.348 1.293-1.035 3.126-2.469 5.157l-1.031 1.437L9 47.938c6.176.027 9.754-4.032 10.313-4.688 1.824.406 3.722.688 5.687.688 12.582 0 22.938-8.864 22.938-19.938C47.938 12.926 37.581 4.062 25 4.062zm0 1.875c11.715 0 21.063 8.152 21.063 18.062 0 9.91-9.348 18.063-21.063 18.063a24.51 24.51 0 0 1-5.781-.688l-.563-.125-.375.469s-2.89 3.258-7.5 4.031c.832-1.492 1.465-2.879 1.75-3.938.399-1.48.406-2.5.406-2.5v-.5l-.437-.28C7.273 35.218 3.937 29.941 3.937 24c0-9.91 9.344-18.063 21.063-18.063z"/>
</symbol><symbol id="svg-ico_tattoo-filled" viewBox="0 0 50 50">
    <path d="M6.984-.016C6.434-.004 5.992.45 6 1v4a1 1 0 0 0-1 1H1a1.006 1.006 0 0 0-.879.496 1.01 1.01 0 0 0 0 1.008c.184.312.52.5.879.496h5.586l1 1H4a1.006 1.006 0 0 0-.879.496 1.01 1.01 0 0 0 0 1.008c.184.312.52.5.879.496h5.586l1 1H7a1.006 1.006 0 0 0-.879.496 1.01 1.01 0 0 0 0 1.008c.184.312.52.5.879.496h5.586l2.207 2.207c.008.008.023.016.035.023l-.004.004.004.008c.004-.004.004-.008.004-.008h.008c.023-.09.058-.172.082-.261l.488-1.282c.074-.16.14-.328.219-.472l7.078 7.078-1.41 1.41-6.469-6.465c-2.793 8.778-1.058 23.309-.969 24.055.055.441.391.789.825.863.437.074 5.777.973 11.933.973 4.16 0 8.692-.414 12.336-1.762L44.586 46H42a1.006 1.006 0 0 0-.879.496 1.01 1.01 0 0 0 0 1.008c.184.312.52.5.879.496h4.848c.32.055.644-.05.875-.277.226-.23.332-.555.277-.875V42a1.003 1.003 0 0 0-1.016-1.016c-.55.012-.992.465-.984 1.016v2.586L40.918 39.5c1.031-.543 1.96-1.184 2.73-1.953 4.57-4.57 4.887-11.692.707-15.871-2.113-2.11-5.007-3.145-8.093-2.91.23-3.082-.797-5.977-2.907-8.09-4.183-4.18-11.3-3.86-15.87.707-.743.742-1.36 1.703-1.876 2.812L14 12.585V7a1.003 1.003 0 0 0-1.016-1.016c-.55.012-.992.465-.984 1.016v3.586l-1-1V4a1.003 1.003 0 0 0-1.016-1.016C9.434 2.996 8.992 3.45 9 4v3.586l-1-1V1A1.003 1.003 0 0 0 6.984-.016zm18.157 10.079a1 1 0 0 1 .313 1.973c-.278.042-.563.109-.852.198a1.004 1.004 0 0 1-1.246-.672 1 1 0 0 1 .671-1.246c.375-.113.75-.199 1.114-.254zm4.168.62a.964.964 0 0 1 .378.114c.336.176.668.379.985.61.445.323.543.948.219 1.394a1.002 1.002 0 0 1-1.395.227 5.886 5.886 0 0 0-.734-.462.999.999 0 0 1 .547-1.882zm-8.407 1.57c.254.024.5.145.68.356a.997.997 0 0 1-.121 1.407c-.234.199-.465.41-.695.632a.992.992 0 0 1-1.414-.02.995.995 0 0 1 .02-1.41c.265-.261.53-.503.8-.73.21-.18.476-.254.73-.234zM32.38 14.52a1 1 0 0 1 .836.718c.097.344.183.696.254 1.051a.996.996 0 0 1-.98 1.207c-.462 0-.876-.324-.977-.793-.067-.312-.14-.621-.227-.922a1.011 1.011 0 0 1 .7-1.234c.132-.035.265-.043.394-.027zm-17 .242c-.121.285-.238.578-.348.879.106-.309.223-.602.348-.88zm17.555 4.742a.98.98 0 0 1 .91.496.97.97 0 0 1 .37.254c.024.058.04.117.071.168.035.062.094.105.14.156a.996.996 0 0 1-.852 1.355 3.94 3.94 0 0 0-.39.051.99.99 0 0 1-.816-.21 1.012 1.012 0 0 1-.367-.758c0-.008-.004-.176-.016-.465a1 1 0 0 1 .95-1.047zm4.152 1.246c.52 0 1.027.031 1.523.121.125.047.254.086.375.137a.998.998 0 0 1 .547 1.305.996.996 0 0 1-.922.625.997.997 0 0 1-.379-.079c-.3-.12-.609-.234-.917-.336a1 1 0 0 1-.637-1.261.994.994 0 0 1 .41-.512zm-19.988.59c.547.07.933.57.863 1.117-.043.324-.078.652-.113.98a1.002 1.002 0 0 1-.993.899.891.891 0 0 1-.105-.008.997.997 0 0 1-.89-1.098c.035-.343.074-.687.12-1.027.07-.55.57-.926 1.118-.863zm25.054 1.797a1 1 0 0 1 .7.3c.277.29.53.59.757.903a.994.994 0 0 1-.21 1.394A1 1 0 0 1 42 25.52a6.502 6.502 0 0 0-.59-.69 1 1 0 0 1 .741-1.692zm-25.527 3.238a1 1 0 0 1 .973 1.027c-.012.336-.016.668-.02 1a1.004 1.004 0 0 1-1 .985h-.015a.995.995 0 0 1-.985-1.016c.004-.34.008-.68.02-1.023.015-.555.472-.97 1.027-.973zm27.457 1.469a.994.994 0 0 1 .977 1.02 8.33 8.33 0 0 1-.125 1.195 1.002 1.002 0 0 1-1.168.804.998.998 0 0 1-.801-1.164c.055-.297.086-.594.094-.883a.982.982 0 0 1 1.023-.972zM16.59 31.437c.558-.054 1.012.41 1.035.961.012.344.023.68.043 1a1 1 0 0 1-.953 1.043c-.02.004-.035.004-.047.004a1 1 0 0 1-1-.953 71.568 71.568 0 0 1-.043-1.023.994.994 0 0 1 .965-1.032zm25.476 1.211a.998.998 0 0 1 .93 1.594c-.223.293-.46.582-.719.867a.983.983 0 0 1-.746.332 1 1 0 0 1-.668-.254 1 1 0 0 1-.07-1.414c.219-.242.422-.492.613-.742a.99.99 0 0 1 .66-.383zm-3.925 3.207a.996.996 0 0 1 .422 1.91c-.336.15-.68.29-1.04.419-.109.039-.226.054-.336.054a1 1 0 0 1-.335-1.941c.312-.11.613-.227.902-.36a.983.983 0 0 1 .387-.082zm-21.286.657c.465-.059.875.23 1.032.64a1 1 0 0 1 .597 1.051c-.07.504-.5.867-.992.867-.047 0-.09-.004-.133-.008-.332-.046-.515-.078-.515-.078a.995.995 0 0 1-.836-.875l-.055-.507a1 1 0 0 1 .902-1.09zm16.125.726c.54-.082 1.051.293 1.137.84a1 1 0 0 1-.836 1.14c-.351.055-.707.102-1.062.145-.043.008-.086.008-.125.008a1 1 0 0 1-.125-1.992c.34-.04.676-.086 1.011-.14zm-11.257.262c.332.02.675.047 1.027.066a.995.995 0 0 1 .941 1.055.995.995 0 0 1-.996.941h-.054c-.368-.019-.723-.046-1.063-.07a.996.996 0 0 1-.922-1.07.99.99 0 0 1 1.067-.922zm6.172.164c.558.012 1.011.426 1.027.977a1.002 1.002 0 0 1-.977 1.023c-.355.008-.71.016-1.066.02h-.004a1.001 1.001 0 0 1-.004-2c.336-.004.68-.012 1.024-.02z"/>
</symbol><symbol id="svg-ico_tattoo-machine" viewBox="0 0 50 50">
    <path d="M40 6c-1.293 0-2.395.844-2.813 2h-.773l-1.207-1.207a1.004 1.004 0 0 0-1.645.32 1 1 0 0 0 .231 1.094L36.586 11l-1.106 1.105-.19-.19c-.403-.403-.962-.466-1.376-.38-.414.086-.766.29-1.059.586v.004l-5.73 5.727a2.085 2.085 0 0 0-.59 1.062c-.086.414-.02.973.383 1.375l.187.191L26 21.586 25.414 21l.793-.793-1.414-1.414-.5.5-2.586-2.586 1-1-1.414-1.414L20 15.586l-.793-.793a.992.992 0 0 0-.973-.273.99.99 0 0 0-.714.714.992.992 0 0 0 .273.973l.793.793-1.293 1.293 1.414 1.414 1-1 2.586 2.586-.293.293-.586-.586A1.972 1.972 0 0 0 20 20.422c-.516 0-1.027.191-1.414.578L10 29.586a2.014 2.014 0 0 0 0 2.828l.293.293L5 38l.5.5L3 41l-2 3 3-2 2.5-2.5.5.5 5.293-5.293.293.293a2.014 2.014 0 0 0 2.828 0L24 26.414a2.014 2.014 0 0 0 0-2.828L23.414 23l.586-.586 11.707 11.707 1.414-1.414a.986.986 0 0 1 0-1.414l9.172-9.172a.986.986 0 0 1 1.414 0l1.414-1.414-.758-.758a1 1 0 0 0 .344-1.656l-1-1a1.008 1.008 0 0 0-.719-.305c-.414.004-.789.262-.933.653l-5.68-5.676A3.013 3.013 0 0 0 42.813 10H45V8h-2.188C42.395 6.844 41.294 6 40 6zm0 2c.563 0 1 .438 1 1 0 .563-.438 1-1 1-.563 0-1-.438-1-1 0-.563.438-1 1-1zm-2 4.414L41.586 16l-1.106 1.105-.19-.19c-.403-.403-.962-.466-1.376-.38-.414.086-.766.29-1.059.586v.004l-5.73 5.727a2.085 2.085 0 0 0-.59 1.062c-.086.414-.02.973.383 1.375l.187.191L31 26.586 27.414 23l1.106-1.105.19.187c.403.402.966.469 1.38.383.41-.086.762-.293 1.055-.59h.003l5.727-5.73c.297-.293.504-.645.59-1.06.086-.413.02-.972-.38-1.37v-.004l-.19-.191zm-3.824 1.215l1.195 1.195-5.543 5.547-1.2-1.2zM43 17.414l2.086 2.086L34.5 30.086 32.414 28l1.106-1.105.19.187c.403.402.966.469 1.38.383.41-.086.762-.293 1.055-.59h.003l5.727-5.73c.297-.293.504-.645.59-1.06.086-.413.02-.972-.38-1.37v-.004l-.19-.191zm-3.824 1.215l1.195 1.195-5.543 5.547-1.2-1.2zM20 22.414L22.586 25 14 33.586 11.414 31z"/>
</symbol><symbol id="svg-ico_twitter-filled" viewBox="0 0 50 50">
    <path d="M50.063 10.438a20.57 20.57 0 0 1-5.91 1.62 10.309 10.309 0 0 0 4.523-5.687 20.648 20.648 0 0 1-6.531 2.492 10.258 10.258 0 0 0-7.504-3.246c-5.68 0-10.286 4.602-10.286 10.281 0 .805.094 1.59.27 2.344-8.547-.43-16.121-4.523-21.195-10.746a10.243 10.243 0 0 0-1.39 5.172c0 3.566 1.812 6.715 4.573 8.562a10.274 10.274 0 0 1-4.66-1.289v.13c0 4.984 3.547 9.136 8.246 10.085a10.29 10.29 0 0 1-4.644.172c1.312 4.082 5.11 7.063 9.605 7.145A20.613 20.613 0 0 1 2.39 41.87c-.831 0-1.648-.047-2.449-.144a29.053 29.053 0 0 0 15.762 4.62c18.914 0 29.258-15.667 29.258-29.253 0-.446-.012-.895-.027-1.332a20.904 20.904 0 0 0 5.129-5.325z"/>
</symbol><symbol id="svg-ico_youtube" viewBox="0 0 310 310">
    <path d="M297.917 64.645c-11.19-13.302-31.85-18.728-71.306-18.728H83.386c-40.359 0-61.369 5.776-72.517 19.938C0 79.663 0 100.008 0 128.166v53.669c0 54.551 12.896 82.248 83.386 82.248h143.226c34.216 0 53.176-4.788 65.442-16.527C304.633 235.518 310 215.863 310 181.835v-53.669c0-29.695-.841-50.16-12.083-63.521zm-98.896 97.765l-65.038 33.991a9.997 9.997 0 0 1-14.632-8.863v-67.764a10 10 0 0 1 14.609-8.874l65.038 33.772a10 10 0 0 1 .023 17.738z"/>
</symbol><symbol id="svg-ico_zoom-in" viewBox="0 0 26 26">
    <path d="M10 .188A9.81 9.81 0 0 0 .187 10 9.81 9.81 0 0 0 10 19.813a9.77 9.77 0 0 0 6.063-2.125l.875.875a1.843 1.843 0 0 0 .343 2.156l4.594 4.625a1.837 1.837 0 0 0 2.594 0l.875-.875a1.837 1.837 0 0 0 0-2.594l-4.625-4.594a1.819 1.819 0 0 0-2.157-.312l-.875-.875A9.81 9.81 0 0 0 10 .188zM10 2a8 8 0 1 1 0 16 8 8 0 0 1 0-16zM9 5v4H5v2h4v4h2v-4h4V9h-4V5z"/>
</symbol><symbol id="svg-ico_acne removal" viewBox="0 0 9.24 34.35">
    
    <title>
        acne removal
    </title>
    <g id="&#x421;&#x43B;&#x43E;&#x439;_2" data-name="&#x421;&#x43B;&#x43E;&#x439; 2">
        <g id="&#x421;&#x43B;&#x43E;&#x439;_1-2" data-name="&#x421;&#x43B;&#x43E;&#x439; 1">
            <g id="&#x421;&#x43B;&#x43E;&#x439;_2-2" data-name="&#x421;&#x43B;&#x43E;&#x439; 2">
                <g id="&#x421;&#x43B;&#x43E;&#x439;_2-2-2" data-name="&#x421;&#x43B;&#x43E;&#x439; 2-2">
                    <path class="cls-1" d="M.5 2.75V.5h8.24v9.66H7.06v3.64H2.27v-3.64H.5V5.08"/>
                    <path class="cls-1" d="M.5.71V8.9"/>
                    <path class="cls-1" d="M.68 5.17h8.09"/>
                    <path class="cls-1" d="M.66 7.53h4.96"/>
                    <path class="cls-1" d="M2.86 2.78l3.58-.02"/>
                    <path class="cls-1" d="M7.66 10.16H1.47"/>
                    <path class="cls-1" d="M3.37 14.31v1.88l1.2 2.1"/>
                    <path class="cls-1" d="M6 14.31v1.88l-1.19 2.1"/>
                    <path class="cls-1" d="M4.69 18.07v13.96"/>
                    <circle class="cls-2" cx="4.69" cy="31.87" r="1.12"/>
                    <path class="cls-3" d="M2.86 29.99l1.8 1.94"/>
                    <path class="cls-3" d="M4.69 31.93l1.8 1.93"/>
                    <path class="cls-3" d="M6.49 29.99l-1.8 1.94"/>
                    <path class="cls-3" d="M4.66 31.93l-1.8 1.93"/>
                    <path class="cls-3" d="M2 31.75h5.31"/>
                    <path class="cls-3" d="M4.69 31.64l-.04 2.7"/>
                </g>
            </g>
        </g>
    </g>
</symbol><symbol id="svg-ico_airbrush_icn1" viewBox="0 0 26.92 23.71">
    
    <title>
        airbrush_icn1
    </title>
    <g id="&#x421;&#x43B;&#x43E;&#x439;_2" data-name="&#x421;&#x43B;&#x43E;&#x439; 2">
        <g id="&#x421;&#x43B;&#x43E;&#x439;_2-2" data-name="&#x421;&#x43B;&#x43E;&#x439; 2">
            <path class="cls-1" d="M2.41 10.28l4.1-4.11"/>
            <path class="cls-2" d="M3.06 19.27L.71 21.62l1.38 1.39 2.39-2.39"/>
            <path class="cls-2" d="M4.17 10.9l3.1-3.09 2.31 3.59L20.27.71l3 3-3 3s1.31 1.56 1.56 1.56-2.22 2.21-2.22 2.21l-1.95-1.9-9.92 9.93a2.16 2.16 0 0 1-3 .6s-1.61-1.35.5-3.21l2.4-2.36z"/>
            <path class="cls-3" d="M20.9 9.21a4.39 4.39 0 0 0 5.77.68"/>
            <path class="cls-3" d="M7.67 13.54l1.91-2.14"/>
        </g>
    </g>
</symbol><symbol id="svg-ico_bird_icn1" viewBox="0 0 42.05 22.64">
    
    <title>
        bird_icn1
    </title>
    <g id="&#x421;&#x43B;&#x43E;&#x439;_2" data-name="&#x421;&#x43B;&#x43E;&#x439; 2">
        <g id="&#x421;&#x43B;&#x43E;&#x439;_2-2" data-name="&#x421;&#x43B;&#x43E;&#x439; 2">
            <path class="cls-1" d="M17.07 1a.77.77 0 0 1 .44.16.7.7 0 0 1 .3 1 3.68 3.68 0 0 0-.12 1.56v.14L17.75 5l1.07-.14a4.21 4.21 0 0 0 1.09-.34l.32-.13a2 2 0 0 0 .71-.44h1.23a5.8 5.8 0 0 1 .07.74v.58a10.17 10.17 0 0 1 0 1.57c0 .28-.06.57-.11.87s-.09.65-.11 1v.2a2.27 2.27 0 0 0 .34 1.77 2.41 2.41 0 0 0 1.74.71 1.73 1.73 0 0 0 .47-.06c3.11-.74 6.26-1.52 9.31-2.27l.57-.14a52.05 52.05 0 0 0-5.12 2.35l-2.62 1.43 2.95.44a34.26 34.26 0 0 0 5 .29h1.09l-4.57.57-2.86.44-2.06.32c-1.89.28-3.86.57-5.78 1a3.74 3.74 0 0 0-2.11 1.82A8.35 8.35 0 0 1 11 21.64a8.11 8.11 0 0 1-7-3.72A8.63 8.63 0 0 1 3.26 16l-.15-.47c0-.12-.07-.23-.1-.35a4.37 4.37 0 0 0-1.3-2.32l.18-.08a6.12 6.12 0 0 0 1.68-1 3.34 3.34 0 0 1 2.3-1 3.87 3.87 0 0 1 .48 0h.44A2.7 2.7 0 0 0 9 9.64c2.63-3 5.29-5.92 7.55-8.34a.82.82 0 0 1 .57-.3m0-1a1.79 1.79 0 0 0-1.3.62C13.2 3.37 10.66 6.14 8.2 9c-.45.52-.78.86-1.41.86a1.62 1.62 0 0 1-.3 0 4.4 4.4 0 0 0-.62 0 4.32 4.32 0 0 0-3 1.27A9.72 9.72 0 0 1 .78 12.2l-.78.44c.18.23.32.58.56.69 1.11.49 1.29 1.52 1.6 2.5a11.56 11.56 0 0 0 1 2.61 9.08 9.08 0 0 0 7.84 4.2 9.31 9.31 0 0 0 8.21-4.56 2.74 2.74 0 0 1 1.44-1.34c2.58-.52 5.19-.86 7.79-1.27 4-.62 8-1.23 12-1.88a9.42 9.42 0 0 0 1.6-.54l-.04-.54a35 35 0 0 0-4.23-.2h-3a32.8 32.8 0 0 1-4.9-.31c3.49-1.91 7.32-3 10.7-5l-.18-.51a8.58 8.58 0 0 0-1.39.17c-4.88 1.2-9.75 2.42-14.64 3.59a.88.88 0 0 1-.24 0 1.42 1.42 0 0 1-1-.36c-.22-.26-.12-.82-.09-1.25.05-.62.18-1.24.22-1.86a10.11 10.11 0 0 0 0-1.74c-.07-.7 0-1.69-.41-2a1.66 1.66 0 0 0-1-.24c-.39 0-.8 0-1.16.07s-.53.4-.83.51a7.54 7.54 0 0 1-1.21.42 3.82 3.82 0 0 1 0-1.27 1.68 1.68 0 0 0-.56-2.19 1.8 1.8 0 0 0-1-.34z"/>
            <path class="cls-2" d="M6.78 10.37a9.33 9.33 0 0 1 4 3.39c1.57 2.44 3.17 2.79 4.48 2.71a2.8 2.8 0 0 0 2-1s2.82-2.26 4.79-2.71 8.57-.11 8.57-.11"/>
            <path class="cls-2" d="M25.08 10.66l-4.9 2.87"/>
            <path class="cls-2" d="M20.17 3.83s-7.35 5-8 5.92-1.92 2.39-1 4.62"/>
            <path class="cls-1" d="M17.84 2.25L15.99 4.7l2.43-.15"/>
            <path class="cls-1" d="M22.49 4.9l-2.6 2.38 2.45.67"/>
            <path class="cls-1" d="M22.28 8.19l-2.1 1.92 3.16 1"/>
            <path class="cls-1" d="M3.65 11.68s0 1.45 1 1.7 1.58-.5 1.44-.85a21 21 0 0 0-1.19-1.88z"/>
            <path class="cls-1" d="M2.23 13.76l.33-1.72-1.03.55.7 1.17z"/>
        </g>
    </g>
</symbol><symbol id="svg-ico_body art_icn" viewBox="0 0 228.88 371.29">
    
    <title>
        body art_icn
    </title>
    <g id="&#x421;&#x43B;&#x43E;&#x439;_2" data-name="&#x421;&#x43B;&#x43E;&#x439; 2">
        <g id="&#x421;&#x43B;&#x43E;&#x439;_4" data-name="&#x421;&#x43B;&#x43E;&#x439; 4">
            <path class="cls-1" d="M127.08 371.29H25.92A26 26 0 0 1 0 345.37V209.63a26 26 0 0 1 25.92-25.92h2.31c4.08-10.91 12.59-17.53 22.9-17.53h50.74a24.41 24.41 0 0 1 23.27 17.53h1.94A26 26 0 0 1 153 209.63v135.74a26 26 0 0 1-25.92 25.92zM25.92 193.71A15.94 15.94 0 0 0 10 209.63v135.74a15.94 15.94 0 0 0 15.92 15.92h101.16A15.94 15.94 0 0 0 143 345.37V209.63a15.94 15.94 0 0 0-15.92-15.92h-10.35l-.58-4.34c-1.2-9.06-8.24-13.19-14.28-13.19H51.13c-6.77 0-12.16 5.15-14.4 13.79l-1 3.74z"/>
            <path class="cls-1" d="M25.83 183.71h39.52v10H25.83z"/>
            <path class="cls-1" d="M119.79 175.26H34.14V103h85.65zm-75.65-10h65.65V113H44.14z"/>
            <path class="cls-1" d="M91.33 183.71h34.91v10H91.33z"/>
            <path class="cls-1" d="M91.33 135.28h10v25.22h-10z"/>
            <path class="cls-1" d="M91.33 119.59h10v10.92h-10z"/>
            <path class="cls-1" d="M72.67 135.28h10v25.22h-10z"/>
            <path class="cls-1" d="M72.67 119.59h10v10.92h-10z"/>
            <path class="cls-1" d="M53 134.94h10v25.22H53z"/>
            <path class="cls-1" d="M53 119.26h10v10.92H53z"/>
            <path class="cls-1" d="M113.48 235.68h10v107.01h-10z"/>
            <path class="cls-1" d="M113.48 215.08h10V226h-10z"/>
            <path class="cls-1" d="M77.33 87.91h-.16a5.3 5.3 0 0 1 .93-10.55 5.73 5.73 0 0 1 4.78 4.77 5 5 0 0 1-3.25 5.23 5.09 5.09 0 0 1-2.3.55z"/>
            <path class="cls-1" d="M103.24 97h-10V71h-32v26h-10V61h52v36z"/>
            <path class="cls-1" d="M114.24 62a5 5 0 1 1 3.53-1.47 5 5 0 0 1-3.53 1.47z"/>
            <path class="cls-1" d="M129.23 49a5 5 0 0 1 2.05-6.77 5 5 0 0 1 6.77 2A5 5 0 0 1 136 51a4.9 4.9 0 0 1-2.36.6 5 5 0 0 1-4.41-2.6zm19.4-10.4a5 5 0 0 1 2.05-6.77 5 5 0 0 1 6.77 2 5 5 0 0 1-2 6.77 4.9 4.9 0 0 1-2.36.6 5 5 0 0 1-4.46-2.64zM168 28.16a5 5 0 0 1 2.05-6.77 5 5 0 0 1 6.77 2 5 5 0 0 1-2 6.77 4.9 4.9 0 0 1-2.36.6 5 5 0 0 1-4.46-2.6zm19.4-10.4a5 5 0 0 1 2-6.77 5 5 0 0 1 6.77 2 5 5 0 0 1-2.05 6.77 4.9 4.9 0 0 1-2.36.6 5 5 0 0 1-4.33-2.6z"/>
            <path class="cls-1" d="M211.24 10a5 5 0 0 1-5-5 5 5 0 1 1 5 5z"/>
            <path class="cls-1" d="M214.29 149.73a5 5 0 0 1-2.42-.62l-.87-.49a5 5 0 1 1 4.84-8.75l.87.49a5 5 0 0 1-2.42 9.37zm-20.13-11.12a5 5 0 0 1-2.42-.62l-.87-.49a5 5 0 1 1 4.84-8.75l.87.48a5 5 0 0 1-2.42 9.38zM174 127.48a5 5 0 0 1-2.42-.62l-.87-.48a5 5 0 0 1 4.83-8.76l.88.49a5 5 0 0 1-2.42 9.37zm-20.1-11.12a4.94 4.94 0 0 1-2.42-.63l-.88-.48a5 5 0 0 1 4.85-8.75l.87.49a5 5 0 0 1-2.42 9.37zm-20.13-11.12a5.05 5.05 0 0 1-2.42-.63l-.87-.48a5 5 0 0 1 4.83-8.76l.88.49a5 5 0 0 1-2.42 9.38zm-20.13-11.13a5 5 0 0 1-2.42-.62l-.87-.49a5 5 0 0 1 4.83-8.75l.88.48a5 5 0 0 1-2.42 9.38z"/>
            <path class="cls-2" d="M207.87 47a5 5 0 0 1-2.23-.53l-.63-.32a5 5 0 1 1 4.47-8.94l.64.32.19.1a5.42 5.42 0 0 1 .91.66h.06a5 5 0 0 1 1.42 2.45 4.94 4.94 0 0 1-.4 3.34 5.12 5.12 0 0 1-.93 1.3h-.09a4.91 4.91 0 0 1-1.88 1.13h-.07a4.77 4.77 0 0 1-1.46.49z"/>
            <path class="cls-2" d="M134.87 76a5 5 0 0 1-2.23-.53l-.63-.32a5 5 0 1 1 4.47-8.94l.64.32.19.1a5.42 5.42 0 0 1 .91.66h.06a5 5 0 0 1 1.42 2.45 4.94 4.94 0 0 1-.4 3.34 5.12 5.12 0 0 1-.93 1.3 4.91 4.91 0 0 1-1.88 1.13h-.07a4.77 4.77 0 0 1-1.55.49z"/>
            <path class="cls-2" d="M197.87 103a5 5 0 0 1-2.23-.53l-.63-.32a5 5 0 1 1 4.47-8.94l.64.32.19.1a5.42 5.42 0 0 1 .91.66h.06a5 5 0 0 1 1.42 2.45 4.94 4.94 0 0 1-.4 3.34 5.12 5.12 0 0 1-.93 1.3 4.91 4.91 0 0 1-1.88 1.13h-.07a4.77 4.77 0 0 1-1.55.49z"/>
            <path class="cls-2" d="M223.87 70a5 5 0 0 1-2.23-.53l-.63-.32a5 5 0 1 1 4.47-8.94l.64.32.19.1a5.42 5.42 0 0 1 .91.66h.06a5 5 0 0 1 1.42 2.45 4.94 4.94 0 0 1-.4 3.34 5.12 5.12 0 0 1-.93 1.3h-.09a4.91 4.91 0 0 1-1.88 1.13h-.07a4.77 4.77 0 0 1-1.46.49z"/>
            <path class="cls-2" d="M217.87 125a5 5 0 0 1-2.23-.53l-.63-.32a5 5 0 1 1 4.47-8.94l.64.32.19.1a5.42 5.42 0 0 1 .91.66h.06a5 5 0 0 1 1.42 2.45 4.94 4.94 0 0 1-.4 3.34 5.12 5.12 0 0 1-.93 1.3 4.91 4.91 0 0 1-1.88 1.13h-.07a4.77 4.77 0 0 1-1.55.49z"/>
            <path class="cls-2" d="M155.87 92a5 5 0 0 1-2.23-.53l-.63-.32a5 5 0 1 1 4.47-8.94l.64.32.19.1a5.42 5.42 0 0 1 .91.66h.06a5 5 0 0 1 1.42 2.45 4.94 4.94 0 0 1-.4 3.34 5.12 5.12 0 0 1-.93 1.3h-.09a4.91 4.91 0 0 1-1.88 1.13h-.07a4.77 4.77 0 0 1-1.46.49z"/>
            <path class="cls-2" d="M173.87 68a5 5 0 0 1-2.23-.53l-.63-.32a5 5 0 1 1 4.47-8.94l.64.32.19.1a5.42 5.42 0 0 1 .91.66h.06a5 5 0 0 1 1.42 2.45 4.94 4.94 0 0 1-.4 3.34 5.12 5.12 0 0 1-.93 1.3h-.09a4.91 4.91 0 0 1-1.88 1.13h-.07a4.77 4.77 0 0 1-1.46.49z"/>
        </g>
    </g>
</symbol><symbol id="svg-ico_ear_icn1" viewBox="0 0 26.83 41.7">
    
    <title>
        ear_icn1
    </title>
    <g id="&#x421;&#x43B;&#x43E;&#x439;_2" data-name="&#x421;&#x43B;&#x43E;&#x439; 2">
        <g id="&#x421;&#x43B;&#x43E;&#x439;_2-2" data-name="&#x421;&#x43B;&#x43E;&#x439; 2">
            <path class="cls-1" d="M25.1 35.71s.91 3.18-.61 4.39a3.78 3.78 0 0 1-3.2.95 3.22 3.22 0 0 1-3-1.44c-1.62-2.34-1.25-3.65-4-5.48S2.23 25.2 3.92 13.82c0 0 1.26-12.07 11.2-13.14 0 0 6.6-.91 9.39 4.68a20 20 0 0 1 1.33 11.21"/>
            <path class="cls-1" d="M23 32a7.22 7.22 0 0 0-6.18-4.21c-4.72-.4-7.22-3.64-7.36-5.58s-.22-3.38 2.64-5a15 15 0 0 1 4.77-.68c1.91.21 6.43-1.86 7.14-2.46"/>
            <path class="cls-2" d="M25.5 29.69s-3.13-.45-2.38-3.38 1.41-2.69.59-5.28c0 0-.82-2.16-5.35-.08"/>
            <path class="cls-3" d="M1.7 10.78a1 1 0 1 1-.95 1 .95.95 0 0 1 1-1m0-.75a1.7 1.7 0 1 0 1.7 1.7A1.7 1.7 0 0 0 1.7 10z"/>
            <path class="cls-3" d="M25.13.9a1 1 0 1 1-.95 1 1 1 0 0 1 .95-1m0-.75a1.7 1.7 0 1 0 1.7 1.7 1.7 1.7 0 0 0-1.7-1.7z"/>
            <path class="cls-4" d="M5.83 10.3l16.1-6.75"/>
        </g>
    </g>
</symbol><symbol id="svg-ico_face_icn" viewBox="0 0 22.95 31.86">
    
    <title>
        face_icn
    </title>
    <g id="&#x421;&#x43B;&#x43E;&#x439;_2" data-name="&#x421;&#x43B;&#x43E;&#x439; 2">
        <g id="&#x421;&#x43B;&#x43E;&#x439;_2-2" data-name="&#x421;&#x43B;&#x43E;&#x439; 2">
            <path class="cls-1" d="M5.29 23.62l-.68-.32a7.15 7.15 0 0 1-4-7.54 9.65 9.65 0 0 1 1.83-4.55l.75-.82c.43-.35.83-.71 1.27-1a21.32 21.32 0 0 1 5.18-2.6 24.3 24.3 0 0 1 6.93-1.62h1.29c0 .08.08.19.15.24a13.46 13.46 0 0 1 1.26.8 6.9 6.9 0 0 1 2.19 3.29 4.4 4.4 0 0 1 .2 2.1A3.2 3.2 0 0 1 21 13"/>
            <path class="cls-1" d="M2.45 10.92A2.14 2.14 0 0 1 1.9 9a3.37 3.37 0 0 1 .15-.78A11.16 11.16 0 0 1 9.91.79c.5-.14 1-.19 1.53-.29h1.19l.19.05a6.79 6.79 0 0 1 3.82 1.58 2.88 2.88 0 0 1 1.23 2.71"/>
            <path class="cls-1" d="M20 20l.15-.09c.21-.15.38-.27.54-.4a4.31 4.31 0 0 0 .77-6.22 4.58 4.58 0 0 0-2.34-1.43 10.17 10.17 0 0 0-5.28-.14c-.67.15-1.33.38-2 .57L7 14.58"/>
            <path class="cls-2" d="M12.89 13.8c6.36 0 6.5 5.3 6.5 5.3v4.81a8.29 8.29 0 0 1-6.51 7h-.74c-5.53-1.13-6.58-6.78-6.58-6.78l-.09-4.94c0-3 1.07-5.34 7.42-5.34m0-1c-5.82 0-8.42 1.95-8.42 6.34l.09 5v.17c0 .25 1.25 6.32 7.37 7.57H13.08a9.26 9.26 0 0 0 7.34-7.76v-5c0-.09-.25-6.3-7.5-6.3z"/>
            <circle class="cls-1" cx="9.05" cy="20.54" r="2.08"/>
            <circle class="cls-1" cx="15.82" cy="20.51" r="2.08"/>
            <path class="cls-2" d="M14 27.86h-3.18a1.49 1.49 0 0 0 1.67 1 1.4 1.4 0 0 0 1.51-1z"/>
            <path class="cls-2" d="M11 27.64h2.9a.94.94 0 0 0-1-.71h-1a.92.92 0 0 0-.9.71z"/>
        </g>
    </g>
</symbol><symbol id="svg-ico_gun_icn_1" viewBox="0 0 32.02 40.84">
    
    <title>
        gun_icn_1
    </title>
    <g id="&#x421;&#x43B;&#x43E;&#x439;_2" data-name="&#x421;&#x43B;&#x43E;&#x439; 2">
        <g id="&#x421;&#x43B;&#x43E;&#x439;_4" data-name="&#x421;&#x43B;&#x43E;&#x439; 4">
            <path class="cls-1" d="M9.26 28.37l-1.15 3.37c-1 2.92-3.11 1.9-3.11 1.9-1.61 5.27-4.08 6.5-4.08 6.5-1.1-2.86 1.19-7.68 1.19-7.68S0 31.79.62 29.85s3.93-11 3.93-11a2 2 0 0 1 2.88-.73"/>
            <path class="cls-1" d="M9.7 26.82l2-5.52s.58-1.39-1.7-2.3l1.2-3"/>
            <path class="cls-1" d="M18.54 18.6L5.37 13.74a1 1 0 0 1-.62-1.34v-.07a1.05 1.05 0 0 1 1.35-.62l20.51 7.56a1 1 0 0 1 .62 1.34v.07a1.06 1.06 0 0 1-1.35.62l-5.67-2.08"/>
            <path class="cls-1" d="M23.43 4.59l7.76 2.74c.32.11.42.65.23 1.19v.07c-.19.54-.61.89-.93.78L18.39 5.1c-.32-.11-.42-.65-.23-1.19v-.07c.19-.54.61-.89.93-.78l2.94 1"/>
            <path class="cls-2" d="M8.38 15.37l-1.3 3.1"/>
            <rect class="cls-2" x="23.78" y="9.9" width="4.8" height="7.09" rx="1.37" ry="1.37" transform="rotate(19.14 26.175 13.429)"/>
            <rect class="cls-2" x="16.63" y="7.25" width="4.8" height="7.09" rx="1.37" ry="1.37" transform="rotate(19.14 19.021 10.792)"/>
            <path class="cls-2" d="M16.39 15.37a1.49 1.49 0 0 0 .69-1.5"/>
            <path class="cls-2" d="M17.35 15.82a1.33 1.33 0 0 1 .67-1.6"/>
            <path class="cls-2" d="M23.9 18.21a1.49 1.49 0 0 0 .68-1.5"/>
            <path class="cls-2" d="M24.85 18.65a1.34 1.34 0 0 1 .68-1.6"/>
            <path class="cls-2" d="M26.88 9.92a1.49 1.49 0 0 0 .69-1.5"/>
            <path class="cls-2" d="M27.84 10.36a1.33 1.33 0 0 1 .67-1.6"/>
            <path class="cls-2" d="M19.66 7.18a1.47 1.47 0 0 0 .68-1.49"/>
            <path class="cls-2" d="M20.61 7.63A1.33 1.33 0 0 1 21.28 6"/>
            <path class="cls-2" d="M7.27 18.03l2.63.88"/>
            <path class="cls-2" d="M2.47 32.57l2.18.9"/>
            <path class="cls-2" d="M9.65 21.06l-2.62 7.36"/>
            <circle class="cls-2" cx="14.46" cy="2.52" r="2.02"/>
            <path class="cls-2" d="M13.81 4.43l-1.93 5.29"/>
            <path class="cls-2" d="M12.09 13.7s1.37-3.64-.15-4.16"/>
            <path class="cls-2" d="M9.17 12.62S10.48 9 12 9.54"/>
        </g>
    </g>
</symbol><symbol id="svg-ico_laser_icn_1" viewBox="0 0 36.46 41.99">
    
    <title>
        laser_icn_1
    </title>
    <g id="&#x421;&#x43B;&#x43E;&#x439;_2" data-name="&#x421;&#x43B;&#x43E;&#x439; 2">
        <g id="&#x421;&#x43B;&#x43E;&#x439;_2-2" data-name="&#x421;&#x43B;&#x43E;&#x439; 2">
            <path class="cls-1" d="M5.66 37.33A4.66 4.66 0 0 1 10.21 41h-9.1a4.66 4.66 0 0 1 4.55-3.66m0-1A5.66 5.66 0 0 0 0 42h11.32a5.66 5.66 0 0 0-5.66-5.66z"/>
            <path class="cls-2" d="M6.34 36.79l6.63-13.24"/>
            <path class="cls-2" d="M8.11 37.89l6.86-13.62"/>
            <path class="cls-1" d="M6.84 1.82a1.9 1.9 0 1 1-1.9 1.9 1.9 1.9 0 0 1 1.9-1.9m0-1a2.9 2.9 0 1 0 2.9 2.9 2.9 2.9 0 0 0-2.9-2.9z"/>
            <path class="cls-1" d="M15 20.21a1.9 1.9 0 1 1-1.9 1.89 1.89 1.89 0 0 1 1.9-1.89m0-1a2.9 2.9 0 1 0 2.89 2.89A2.89 2.89 0 0 0 15 19.21z"/>
            <path class="cls-2" d="M6.15 5.89l7.33 14.87"/>
            <path class="cls-2" d="M8.18 5.54l6.96 14.18"/>
            <path class="cls-2" d="M8.77 2.75h18.95V.5h8.24v9.66h-1.68v3.64h-4.79v-3.64h-1.77V5.08H8.77"/>
            <path class="cls-2" d="M27.72.71V8.9"/>
            <path class="cls-2" d="M27.9 5.17h8.09"/>
            <path class="cls-2" d="M27.88 7.53h4.96"/>
            <path class="cls-2" d="M30.08 2.78l3.58-.02"/>
            <path class="cls-2" d="M34.88 10.16h-6.19"/>
            <path class="cls-2" d="M9.96 39.29H5.22"/>
            <path class="cls-2" d="M30.59 14.31v1.88l1.2 2.1"/>
            <path class="cls-2" d="M33.22 14.31v1.88l-1.19 2.1"/>
            <path class="cls-3" d="M31.91 18.07v13.96"/>
            <circle class="cls-1" cx="31.91" cy="31.87" r="1.12"/>
            <path class="cls-4" d="M30.08 29.99l1.8 1.94"/>
            <path class="cls-4" d="M31.91 31.93l1.8 1.93"/>
            <path class="cls-4" d="M33.71 29.99l-1.8 1.94"/>
            <path class="cls-4" d="M31.88 31.93l-1.8 1.93"/>
            <path class="cls-4" d="M29.22 31.75h5.31"/>
            <path class="cls-4" d="M31.91 31.64l-.04 2.7"/>
        </g>
    </g>
</symbol><symbol id="svg-ico_reviv_icn" viewBox="0 0 273.92 335.37">
    
    <title>
        reviv_icn
    </title>
    <g id="&#x421;&#x43B;&#x43E;&#x439;_2" data-name="&#x421;&#x43B;&#x43E;&#x439; 2">
        <g id="&#x421;&#x43B;&#x43E;&#x439;_4" data-name="&#x421;&#x43B;&#x43E;&#x439; 4">
            <path class="cls-1" d="M102.71 86.56H5a5 5 0 0 1-5-5V53.35a5 5 0 0 1 5-5h95.7a5 5 0 0 1 0 10H10v18.21h92.71a5 5 0 0 1 0 10z"/>
            <path class="cls-1" d="M96.1 294.6c-2 0-3.89-.05-5.66-.08h-2.31c-4.3-.07-8.65-.29-12.86-.5a206 206 0 0 0-23.56-.26c-16.51 1.12-24.22-19.12-26.18-31.26-.93-5.81-11.6-158.14-12.81-175.5a5 5 0 1 1 10-.7c4.72 67.61 12 169.89 12.7 174.56 1 6 5.81 22.88 15.1 22.88H51a209.93 209.93 0 0 1 24.73.24c4.13.21 8.4.42 12.54.49h2.36c9.77.22 23.13.51 27.9-6.67a5 5 0 1 1 8.33 5.54c-6.57 9.99-19.86 11.26-30.76 11.26z"/>
            <path class="cls-1" d="M107.75 330.33H45.29a5 5 0 0 1-5-5v-36.26a5 5 0 0 1 10 0v31.26h52.46v-31.26a5 5 0 0 1 10 0v36.26a5 5 0 0 1-5 5z"/>
            <path class="cls-1" d="M110.77 159.09H24.14a5 5 0 0 1 0-10h86.63a5 5 0 1 1 0 10z"/>
            <path class="cls-1" d="M116.81 245.72H31.19a5 5 0 0 1 0-10h85.62a5 5 0 0 1 0 10z"/>
            <path class="cls-1" d="M268.92 46.26H89.62a5 5 0 0 1-5-5V5a5 5 0 0 1 5-5h179.3a5 5 0 0 1 5 5v36.26a5 5 0 0 1-5 5zm-174.3-10h169.3V10H94.62z"/>
            <path class="cls-1" d="M186.21 276c-26.84 0-55.17-.49-60.61-.59a5 5 0 0 1-4.89-4.56L101.08 47.94a5 5 0 0 1 10-.88l19.2 218.44c35.42.59 85.5.88 100.5-.41l22.81-219.73a5 5 0 1 1 10 1L240.32 270a5 5 0 0 1-3.87 4.36c-5.59 1.29-27.37 1.64-50.24 1.64z"/>
            <path class="cls-1" d="M223.59 335.37H140a5 5 0 0 1-5-5V276a5 5 0 0 1 10 0v49.4h73.61V276a5 5 0 0 1 10 0v54.4a5 5 0 0 1-5.02 4.97z"/>
            <path class="cls-1" d="M245.75 136.92H114.8a5 5 0 1 1 0-10h131a5 5 0 1 1 0 10z"/>
            <path class="cls-1" d="M236.69 225.57H122.86a5 5 0 0 1 0-10h113.83a5 5 0 0 1 0 10z"/>
            <path class="cls-1" d="M213.26 257v-10h-.16c2-.14 4.19-2.42 4.19-8.36a5 5 0 0 1 10 0c0 14.47-9.18 18.36-14.03 18.36z"/>
            <path class="cls-1" d="M216.54 314.22H146a5 5 0 1 1 0-10h70.51a5 5 0 0 1 0 10z"/>
            <path class="cls-1" d="M198.75 311.84a5 5 0 0 1-5-5c0-6.27-5.45-11.35-12.14-11.35s-12 5-12.14 11.1a5 5 0 0 1-5 4.92h-.08a5 5 0 0 1-4.92-5.08c.19-11.54 10.12-20.93 22.14-20.93 12.2 0 22.14 9.57 22.14 21.32a5 5 0 0 1-5 5.02z"/>
        </g>
    </g>
</symbol></svg>